<?xml version="1.0" encoding="utf-8"?><!DOCTYPE svg PUBLIC "-//W3C//DTD SVG 1.1//EN" "http://www.w3.org/Graphics/SVG/1.1/DTD/svg11.dtd"><svg version="1.1" id="Contours" xmlns="http://www.w3.org/2000/svg" xmlns:xlink="http://www.w3.org/1999/xlink" viewBox="0 0 2955 693" width="100%" height="auto" enable-background="new 0 0 2955 693" xml:space="preserve" fill="none" stroke="#A41E1E" stroke-linecap='round' stroke-linejoin='round'><path class="selected"  fill="#A41E1E" opacity="1.000000" stroke="none" 
 	d="
M2955.000000 659.750004 C2953.759521 662.926029 2952.248291 665.769962 2951.331543 668.794132 C2949.060059 676.285648 2944.496582 681.684757 2938.348877 686.562931 C2934.402344 689.694584 2930.261475 690.620182 2926.006348 690.786197 C2921.966309 690.943851 2917.873047 689.353275 2914.718750 686.246708 C2911.864258 683.435550 2908.234375 681.166569 2906.133789 677.895878 C2903.350830 673.562565 2901.194824 668.840275 2899.434814 663.765507 C2897.465820 658.088566 2898.189453 652.829166 2898.126465 647.478092 C2897.838867 622.982425 2898.000000 598.481571 2897.999756 573.982548 C2897.999756 568.323368 2898.896484 562.967411 2900.647949 557.439152 C2902.168213 552.641178 2901.122559 546.983402 2900.962402 541.713138 C2900.799561 536.341373 2901.387207 530.631656 2899.759277 525.691593 C2897.148926 517.769535 2895.640869 509.691440 2893.674805 501.662479 C2891.336182 492.111942 2887.644531 482.854374 2884.045654 473.662967 C2881.303711 466.660953 2878.125244 459.777683 2874.507812 453.189274 C2872.121094 448.842045 2868.120850 445.385227 2865.702393 441.050297 C2859.905029 430.658664 2852.082275 421.970157 2843.401855 414.116276 C2838.144043 409.359379 2831.860840 405.742008 2826.076172 401.559818 C2822.150635 398.721561 2818.523193 395.385013 2814.343994 393.006046 C2809.168945 390.060093 2803.593506 387.800480 2798.129395 385.384250 C2794.100098 383.602573 2790.089844 381.568516 2785.854736 380.520603 C2781.552490 379.456058 2776.963623 379.610813 2772.540283 378.958957 C2767.977783 378.286564 2763.479492 377.180423 2758.918945 376.491215 C2757.510498 376.278324 2755.935791 377.161258 2754.528564 376.945896 C2739.642090 374.667698 2724.674805 376.684696 2709.765625 375.984623 C2704.732666 375.748295 2699.708252 375.045566 2694.679688 375.042576 C2597.850342 374.985080 2501.020996 375.009220 2404.191650 374.970646 C2399.730225 374.968845 2394.966064 373.466648 2390.895264 374.617649 C2387.045898 375.706028 2382.163818 377.684757 2381.518555 382.954044 C2381.005615 387.142215 2381.020996 391.410587 2381.019287 395.643467 C2380.991455 458.640873 2380.926514 521.638431 2381.045898 584.635624 C2381.080811 602.997318 2381.755615 621.357242 2381.920654 639.719913 C2381.951660 643.164798 2380.920166 646.614383 2380.449463 650.071415 C2380.283203 651.291446 2379.900391 652.730533 2380.351318 653.742313 C2382.107178 657.683536 2379.612793 660.667179 2378.541016 664.036930 C2377.447510 667.476261 2376.937988 671.097233 2375.954834 674.577274 C2375.443359 676.388614 2374.874268 678.476017 2373.623291 679.735721 C2368.100342 685.296879 2361.504883 689.726566 2353.779297 690.699283 C2349.721191 691.210270 2345.040283 689.113224 2341.076416 687.260929 C2338.118896 685.878971 2335.450195 683.329349 2333.368652 680.727115 C2327.656982 673.586918 2323.850586 665.928409 2323.859619 656.124820 C2324.046387 455.299900 2324.000732 254.474781 2323.996826 53.649692 C2323.996582 47.367630 2325.566895 41.329033 2326.490479 35.230259 C2327.388916 29.298595 2329.765137 24.116060 2332.843018 20.255813 C2338.084473 13.681803 2345.059570 8.090647 2353.354004 5.330548 C2357.878906 3.824760 2362.856934 3.270681 2367.659912 3.098019 C2376.980957 2.762939 2386.323486 3.093082 2395.655029 2.981659 C2418.907227 2.704022 2442.157715 2.221827 2465.410156 2.098801 C2469.796875 2.075591 2474.177979 3.443620 2478.587158 3.945143 C2480.325684 4.142884 2482.135498 3.593172 2483.910156 3.616022 C2488.191406 3.671150 2492.470459 3.891608 2496.751709 3.989307 C2499.307617 4.047630 2501.882324 3.810231 2504.419922 4.033158 C2514.902832 4.954063 2525.356689 6.429572 2535.855957 6.863480 C2544.189453 7.207878 2552.575195 6.020775 2560.934570 6.069251 C2575.464111 6.153506 2589.992188 6.992881 2604.518799 6.937620 C2644.879883 6.784080 2685.239990 6.370066 2725.599365 5.962378 C2732.020996 5.897514 2738.437500 5.333355 2744.856201 5.000021 C2751.275146 4.666687 2757.690430 4.190013 2764.113770 4.038373 C2771.223633 3.870528 2778.350830 3.782246 2785.450684 4.100492 C2788.562500 4.239991 2791.600830 5.606941 2794.716553 6.177072 C2798.725098 6.910584 2802.800781 7.283108 2806.804932 8.036796 C2810.221924 8.679877 2813.589111 9.603383 2816.959717 10.474529 C2819.859619 11.224074 2822.740479 12.050926 2825.617920 12.885298 C2833.557373 15.187732 2841.012451 18.461097 2848.276367 22.521190 C2854.315186 25.896744 2860.407959 28.980863 2865.936279 33.265198 C2871.326660 37.442631 2877.758057 40.318916 2882.961670 44.685188 C2890.468506 50.984039 2897.313721 58.076530 2904.373779 64.900158 C2908.646240 69.029461 2913.870117 72.673160 2916.718262 77.649921 C2920.238770 83.800998 2925.177246 88.841800 2928.492432 95.281582 C2931.862793 101.828716 2935.433350 108.453007 2938.836670 115.060467 C2940.829834 118.929867 2941.641602 123.405880 2943.002686 127.603184 C2944.273438 131.523151 2945.757568 135.385776 2946.799072 139.364902 C2947.892334 143.542942 2948.457275 147.857105 2949.479004 152.056797 C2950.001221 154.203418 2951.199707 156.182102 2951.761230 158.323566 C2952.373779 160.659763 2953.040527 163.117512 2952.925781 165.485660 C2952.378906 176.799900 2956.662354 188.165912 2952.212891 199.501545 C2951.154053 202.199802 2952.380127 205.710102 2951.902344 208.744022 C2951.388672 212.005680 2950.016602 215.123066 2949.182373 218.345630 C2948.041016 222.753132 2947.271484 227.267521 2945.935059 231.610691 C2944.738281 235.500934 2942.790039 239.156711 2941.532471 243.032429 C2939.840820 248.244587 2938.790039 253.676975 2936.907715 258.810856 C2935.361572 263.028385 2932.963379 266.928989 2931.016846 271.005466 C2929.229492 274.748813 2927.812988 278.698185 2925.731201 282.263767 C2923.722900 285.703953 2921.069092 288.766605 2918.706543 292.000736 C2915.800049 295.978855 2913.177002 300.205601 2909.932373 303.884861 C2905.588379 308.810978 2900.922119 313.484989 2896.090576 317.937504 C2893.099121 320.694370 2889.534912 322.827518 2886.243896 325.262394 C2883.560547 327.247715 2880.864746 329.218906 2878.240234 331.280063 C2874.792969 333.987308 2871.481689 336.871799 2867.974609 339.496494 C2865.666992 341.223606 2862.745361 342.262363 2860.773926 344.271915 C2858.521973 346.567447 2855.907227 349.468998 2855.572754 352.353428 C2855.340576 354.353458 2858.623779 356.834476 2860.489990 358.966373 C2861.178467 359.753055 2862.446289 360.012058 2863.209961 360.757389 C2867.343506 364.790989 2871.242920 369.077305 2875.520508 372.947605 C2883.331299 380.014744 2891.567627 386.624271 2899.187256 393.885319 C2902.681396 397.215000 2905.035889 401.715976 2908.101562 405.529453 C2909.762939 407.595279 2912.097900 409.137302 2913.661133 411.260349 C2916.590088 415.238346 2919.456299 419.313816 2921.837158 423.630955 C2924.763184 428.936405 2927.162842 434.531925 2929.795166 439.999607 C2932.145752 444.882206 2934.672852 449.688663 2936.810791 454.662479 C2939.025391 459.814335 2941.233154 465.022342 2942.765381 470.399112 C2944.283936 475.726627 2944.885254 481.310306 2946.033936 486.751011 C2946.522461 489.064701 2947.353271 491.309421 2948.095215 493.563511 C2948.235840 493.990879 2948.954834 494.311374 2948.959961 494.687229 C2949.021729 499.300571 2948.789307 503.928806 2949.090088 508.523288 C2949.237793 510.780979 2950.780762 512.948978 2950.920410 515.205387 C2951.451172 523.778629 2951.682129 532.370731 2951.996094 540.956852 C2952.346924 550.541630 2952.708008 560.126224 2952.989746 569.713138 C2953.364258 582.463810 2953.661377 595.216800 2954.002441 607.968509 C2954.154541 613.646000 2954.333496 619.322880 2954.750000 625.000004 C2955.000000 632.500004 2955.000000 640.000004 2954.750000 647.750004 C2954.666748 650.666691 2954.833496 653.333317 2955.000000 656.000004 C2955.000000 657.166691 2955.000000 658.333317 2955.000000 659.750004 M2836.000000 78.499935 C2835.883057 78.616695 2835.782959 78.764530 2835.643555 78.838680 C2835.559082 78.883640 2835.382568 78.854290 2835.301025 78.790111 C2834.195312 77.921177 2833.210693 76.818455 2831.981934 76.198154 C2823.887939 72.111934 2816.025146 67.313999 2807.526611 64.359554 C2800.165771 61.800552 2791.900391 61.953293 2784.340332 59.823379 C2777.804443 57.981956 2771.335693 58.262943 2764.781006 57.951996 C2754.550049 57.466636 2744.334961 56.134155 2734.111084 56.112190 C2713.585938 56.068084 2693.060791 56.850361 2672.533691 56.957241 C2641.205566 57.120365 2609.875244 57.062885 2578.546631 56.954376 C2571.017822 56.928299 2563.490967 56.064144 2555.963623 56.073097 C2547.878662 56.082710 2539.794922 56.910995 2531.709473 56.927028 C2524.515869 56.941292 2517.323975 56.152546 2510.126221 56.042503 C2499.406494 55.878612 2488.680176 55.879600 2477.960449 56.042747 C2470.929443 56.149753 2463.904541 56.947895 2456.876953 56.947590 C2435.273193 56.946655 2413.669189 56.719814 2392.065674 56.547367 C2390.352783 56.533695 2381.677002 61.324657 2381.402832 62.865619 C2380.497314 67.954983 2379.238037 73.067310 2379.130127 78.192226 C2378.972900 85.656673 2378.650391 93.111568 2380.764648 100.595913 C2382.043945 105.124401 2381.000000 110.309101 2381.000000 115.198932 C2381.000000 174.690983 2381.000000 234.183033 2381.000000 293.675083 C2381.000000 298.898197 2380.535889 304.182865 2381.216064 309.315799 C2381.510254 311.534397 2381.031982 314.146732 2383.546387 316.523502 C2386.135010 318.970249 2388.367188 317.922367 2390.649658 317.923984 C2511.633545 318.009983 2632.617188 318.005008 2753.601074 317.987491 C2760.824463 317.986454 2767.989746 318.404911 2775.166504 316.173496 C2780.444092 314.532566 2786.289795 314.819217 2791.749268 313.634372 C2796.972412 312.500858 2802.005371 310.512180 2807.156982 309.020176 C2811.363770 307.801700 2815.969971 307.440738 2819.780273 305.490238 C2826.266846 302.169742 2832.365234 298.046451 2838.443848 293.986484 C2844.422852 289.993107 2850.542969 286.077183 2855.911377 281.344883 C2860.359131 277.423984 2863.742676 272.311039 2867.708496 267.824375 C2871.417725 263.628055 2875.479980 259.726902 2878.976562 255.366794 C2880.734375 253.174625 2881.742188 250.315586 2882.800537 247.643802 C2884.182129 244.156574 2885.256104 240.548481 2886.503418 237.006763 C2887.297119 234.752750 2888.281006 232.560062 2888.974121 230.277485 C2890.199707 226.242374 2891.035645 222.075550 2892.465576 218.119571 C2894.059814 213.709430 2898.028809 209.220371 2897.496582 205.227985 C2896.899414 200.747715 2898.581055 196.069401 2896.523438 191.589481 C2896.184814 190.852192 2894.289307 188.524799 2896.426025 185.969501 C2898.372070 183.642124 2898.833252 179.610798 2898.075439 175.949177 C2897.538330 173.355137 2897.980957 170.564182 2897.495605 167.952366 C2896.753906 163.961292 2895.618896 160.041111 2894.593750 156.105655 C2893.772949 152.953418 2892.699463 149.857319 2892.052979 146.672413 C2891.522217 144.057255 2891.855225 141.229709 2891.108887 138.701862 C2888.312744 129.228382 2882.841309 121.304935 2875.883789 114.437359 C2868.480469 107.129909 2860.831055 100.072513 2853.374268 92.818271 C2851.655029 91.145847 2850.522217 88.829754 2848.702148 87.310085 C2844.778564 84.034435 2840.583740 81.083698 2836.000000 78.499935 z"/><path class="selected"  fill="#A41E1E" opacity="1.000000" stroke="none" 
 	d="
M0.000000 32.250004 C0.870466 30.037136 1.755766 28.080683 2.608089 26.109968 C4.063550 22.744692 5.093143 19.107984 7.057832 16.075174 C8.953338 13.149157 11.892897 10.919065 14.217580 8.247327 C18.727413 3.064214 25.227812 2.665477 32.505455 4.639348 C38.047203 6.142404 43.121536 7.672093 46.775318 12.053245 C49.705727 15.567020 52.599918 18.939348 52.321255 24.443918 C52.081390 29.182031 54.338261 33.992866 54.918022 38.840103 C55.600994 44.550270 55.666668 50.334270 56.000000 56.086254 C56.333336 61.838241 56.950104 67.589916 56.956490 73.342258 C57.026024 136.004108 57.052319 198.666172 56.902954 261.327732 C56.890701 266.467289 55.739220 271.651645 54.694317 276.728122 C53.605350 282.018711 53.600437 287.149784 54.824028 292.414280 C55.462833 295.162754 55.036411 298.154575 55.640331 300.916385 C56.533360 305.000370 57.269970 309.337650 59.260845 312.904148 C61.491638 316.900455 66.135460 317.920475 70.531738 317.953342 C86.420151 318.071995 102.309990 318.000004 118.199287 318.000004 C202.359573 318.000004 286.519897 317.962009 370.680115 318.044407 C382.208130 318.055698 393.734131 318.738407 405.263855 318.973423 C412.317566 319.117222 419.396729 319.317417 426.424957 318.870640 C430.127716 318.635227 433.710114 316.888614 437.411346 316.145603 C441.490692 315.326694 445.697571 315.113743 449.750061 314.198887 C453.895782 313.262913 457.949005 311.878635 461.992249 310.538303 C465.959259 309.223240 469.896881 307.803501 473.787018 306.275913 C481.581665 303.214969 489.199097 299.925449 495.965179 294.721470 C500.324249 291.368778 505.509094 289.104069 510.235077 286.206852 C512.020752 285.112156 513.714905 283.764347 515.177307 282.265110 C519.853821 277.470707 524.378296 272.528507 529.008240 267.688114 C532.181824 264.370212 535.787903 261.397434 538.552429 257.775608 C541.446472 253.984195 543.405884 249.494709 546.067871 245.506595 C548.753845 241.482578 552.203857 237.928318 554.577698 233.747288 C557.025024 229.436954 558.563354 224.612598 560.527649 220.025226 C562.556702 215.286655 564.909485 210.662372 566.582153 205.802723 C568.098267 201.397983 568.617432 196.654346 570.072449 192.223133 C571.695618 187.280185 574.230164 182.624698 575.697388 177.646427 C576.717529 174.184894 576.808167 170.398304 576.961670 166.742145 C577.403564 156.218906 577.885010 145.689625 577.954834 135.160084 C578.102966 112.829433 578.103943 90.496410 577.954956 68.165760 C577.883606 57.469574 577.270264 46.778038 577.022400 36.081615 C576.860596 29.099169 578.840637 22.866838 583.169922 17.181604 C586.691284 12.557297 590.582825 8.798237 595.565979 5.620527 C601.103271 2.089507 606.055664 2.572456 611.392212 4.932286 C615.343445 6.679556 619.960388 7.898925 622.860291 10.782161 C626.009827 13.913524 627.358276 18.794883 629.780334 22.736009 C632.423218 27.036461 629.502197 32.251693 632.766907 36.725643 C634.431274 39.006550 633.948608 43.059238 633.956238 46.312183 C634.029480 77.476314 634.502075 108.654888 633.621460 139.794300 C633.419617 146.933765 634.437317 154.566181 631.271729 161.850193 C629.706909 165.450809 631.286133 170.319172 630.904907 174.565616 C630.625061 177.682606 629.394409 180.704746 628.730042 183.799747 C628.217468 186.187412 628.048584 188.650547 627.504700 191.029346 C626.869507 193.807911 625.815857 196.496509 625.267212 199.287708 C624.614929 202.606189 624.607971 206.069599 623.771851 209.329258 C622.754272 213.296253 621.192139 217.126423 619.810608 220.996143 C619.003174 223.257847 618.035583 225.462543 617.232849 227.725803 C615.549316 232.472339 614.212952 237.365574 612.201965 241.965992 C610.052795 246.882374 607.476501 251.641224 604.733276 256.258915 C602.798157 259.516544 600.087158 262.305729 598.051575 265.512913 C594.017456 271.868931 590.315613 278.436222 586.267090 284.782688 C584.163635 288.080021 581.867737 291.328830 579.211182 294.182987 C574.257446 299.505192 569.262024 304.858707 563.736572 309.555240 C559.749573 312.944095 554.772888 315.141361 550.434021 318.152988 C547.448608 320.225162 544.899780 322.916721 541.976318 325.089969 C537.679504 328.284244 532.730042 330.763828 528.970276 334.472202 C525.114807 338.275059 517.487183 338.842838 517.912170 346.566044 C517.937561 347.027653 517.373047 347.812900 517.516663 347.934147 C520.962952 350.844211 524.416138 353.752140 527.989929 356.502109 C529.358459 357.555179 531.192444 358.015262 532.525757 359.100162 C535.577271 361.583103 538.345032 364.417637 541.420227 366.868168 C547.029236 371.337772 553.016541 375.360782 558.390930 380.087528 C562.550537 383.745823 566.042175 388.169895 569.771973 392.306431 C570.717896 393.355533 571.382385 394.652958 572.275146 395.756260 C575.311646 399.508884 578.338745 403.271427 581.472290 406.942478 C584.243958 410.189609 587.523315 413.067539 589.904480 416.567112 C592.679199 420.645054 594.619751 425.280674 597.113037 429.563236 C599.186951 433.125522 601.859375 436.366306 603.690613 440.036899 C606.592224 445.852878 609.108154 451.869022 611.611450 457.873783 C614.424866 464.622165 617.766663 471.266239 619.568481 478.291752 C621.984985 487.713718 628.587463 495.937504 627.129089 506.528385 C626.373596 512.015018 627.242676 517.576786 628.866211 523.063419 C630.190735 527.539921 630.830139 532.357914 630.908142 537.038883 C631.156250 551.924137 630.895081 566.817142 631.044983 581.705082 C631.117981 588.959598 631.687378 596.208378 631.994629 603.461368 C632.351196 611.878849 632.661438 620.298160 633.001465 628.716373 C633.327942 636.801822 634.536804 644.983219 633.654907 652.933597 C633.170471 657.300968 634.537598 662.277469 631.275940 666.480289 C630.129578 667.957401 630.483521 670.721683 630.437439 672.904178 C630.343445 677.357853 628.013367 681.270145 624.360352 683.185978 C621.829285 684.513431 619.434082 686.104252 617.003662 687.618351 C614.166321 689.385990 608.406921 688.832096 604.535522 689.318363 C600.193604 689.863712 597.378357 687.971500 594.151184 686.331913 C592.055115 685.267032 589.506775 684.316776 588.234253 682.544559 C583.443298 675.872562 579.879578 668.751163 579.927185 660.061893 C580.107971 627.065433 580.000000 594.067264 580.000000 561.069767 C580.000000 554.455936 580.292847 547.823490 579.874573 541.236271 C579.670166 538.018192 577.887756 534.931339 577.287842 531.698246 C576.750366 528.802006 576.913269 525.781498 576.654907 522.825626 C576.494507 520.990665 576.265259 519.139286 575.822449 517.355961 C574.579651 512.350528 573.285217 507.355076 571.867065 502.396854 C570.683594 498.259067 569.483582 494.108097 567.950073 490.093204 C566.253479 485.651554 564.277161 481.306400 562.227295 477.012485 C559.363159 471.012943 556.442627 465.033115 553.306091 459.173404 C551.242432 455.317905 548.745361 451.695225 546.461182 447.956760 C543.873596 443.721775 541.900146 438.928715 538.606384 435.346805 C532.047363 428.213993 524.805603 421.703861 517.761536 415.025516 C515.770813 413.138096 513.440247 411.614567 511.348389 409.827213 C506.795135 405.936802 502.083740 402.532993 496.692047 399.618381 C491.912933 397.034885 487.107178 394.284824 482.236816 391.742985 C476.692413 388.849338 471.122131 386.252353 464.882416 384.840061 C458.423553 383.378116 452.352295 380.260196 445.923920 378.587497 C441.462982 377.426761 436.678040 377.540775 432.049622 376.986942 C425.340515 376.184147 418.659851 375.083469 411.932983 374.509006 C407.061523 374.092930 402.134552 374.280094 397.232819 374.302341 C396.166321 374.307163 395.105316 374.952060 394.035889 374.970981 C373.009613 375.343357 351.981689 375.991337 330.955566 375.943210 C244.766541 375.745884 158.578018 375.330753 72.389244 375.008518 C68.477936 374.993900 64.355721 374.384342 60.739120 375.443241 C58.790485 376.013767 57.205830 379.373569 56.400394 381.789463 C55.807625 383.567447 56.967171 385.855350 56.968002 387.916172 C57.004997 479.742557 57.049793 571.569034 56.890659 663.395145 C56.879768 669.677616 55.103985 675.869449 50.058289 680.449528 C47.289936 682.962467 44.367638 685.256595 41.399403 687.523075 C37.518677 690.486149 33.419479 689.717228 29.668020 689.771122 C21.459284 689.889042 14.461699 685.713138 8.843127 680.083194 C5.257378 676.490177 2.231928 671.999271 1.866855 666.429508 C1.833804 665.925297 0.975207 665.475223 0.249995 665.000004 C0.000000 664.166691 0.000000 663.333317 0.250003 662.250004 C0.666672 660.902530 0.979256 659.804996 0.979370 658.707523 C1.000786 453.069095 1.001801 247.430698 0.958715 41.792286 C0.958450 40.528126 0.333333 39.264095 0.000000 38.000004 C0.000000 36.166672 0.000000 34.333336 0.000000 32.250004 z"/><path class="selected"  fill="#A41E1E" opacity="1.000000" stroke="none" 
 	d="
M758.250000 693.000004 C757.373962 692.333317 756.698425 691.048649 756.129456 691.094181 C749.396545 691.633243 743.194824 689.618778 736.973511 687.510196 C734.163513 686.557865 731.271240 685.827030 728.384094 685.128910 C723.700378 683.996219 720.439514 682.414432 718.036011 679.337833 C715.677917 676.319156 712.788269 673.343021 711.635559 669.851749 C710.256958 665.676151 710.607056 660.953617 709.934692 656.509464 C709.664795 654.725895 708.249634 653.091373 708.085205 651.321232 C707.721619 647.407657 707.703735 643.498783 707.247131 639.545658 C706.150269 630.049930 706.094727 620.406925 706.072876 610.822269 C706.054138 602.629337 706.983704 594.432987 706.931946 586.241703 C706.833923 570.714542 706.103088 555.190372 706.072510 539.664127 C706.047913 527.138553 707.008362 514.608463 706.886719 502.086643 C706.796997 492.858921 704.323975 483.489628 705.344604 474.458194 C706.581543 463.512516 703.636108 452.268894 707.841919 441.603519 C708.104431 440.937809 707.736511 440.046634 707.777039 439.266330 C707.989319 435.184818 707.898499 431.047764 708.575073 427.041843 C709.195190 423.370182 710.763367 419.868442 711.713074 416.239322 C712.399170 413.617374 712.376526 410.761905 713.342957 408.271793 C715.108643 403.722172 717.204102 399.277073 719.481689 394.956882 C721.354675 391.404148 723.702454 388.102787 725.817993 384.676609 C727.892944 381.316288 729.936768 377.936802 732.006592 374.573337 C732.175049 374.299625 732.436890 374.082828 732.658264 373.842289 C736.525879 369.640659 740.897217 365.790165 744.133118 361.148227 C748.075195 355.493290 751.353210 349.107120 749.526428 341.848789 C748.971191 339.642429 746.508789 337.863041 744.784668 336.014164 C740.343567 331.251957 735.209229 326.994968 731.501282 321.727024 C727.157715 315.556034 723.955078 308.569065 720.396179 301.862430 C717.185059 295.811344 713.683960 289.845493 711.225159 283.488376 C709.632935 279.371586 709.096802 274.619999 709.088257 270.150913 C708.960693 203.330280 709.022888 136.509296 708.956787 69.688457 C708.951477 64.322468 709.998291 57.983619 707.575378 53.839725 C704.596619 48.745220 706.312500 43.848194 706.567139 39.700489 C706.977539 33.015625 710.800964 26.446625 713.665283 20.044630 C715.156189 16.712456 717.364380 13.561302 719.804382 10.823717 C724.438293 5.624604 730.340149 2.381324 737.285156 1.186389 C737.554810 1.139989 737.763062 0.736865 738.000000 0.249987 C746.500000 0.000004 755.000000 0.000004 763.750000 0.250003 C769.000000 0.333336 774.000000 0.166670 779.000000 0.000003 C781.166687 0.000004 783.333313 0.000004 785.750000 0.000000 C786.625793 0.666663 787.245789 1.906246 787.878174 1.912562 C795.296509 1.986656 801.312073 5.282102 807.720215 8.720124 C812.892456 11.495073 814.454285 15.984951 817.044373 20.079561 C818.225586 21.946922 818.040283 24.673403 818.496826 27.005892 C818.984253 29.496540 819.933838 31.981594 819.936584 34.469925 C820.015442 105.104442 820.006958 175.739063 819.983704 246.373661 C819.982178 250.876102 819.883362 255.387668 819.583191 259.878483 C819.234497 265.092441 824.098694 270.109440 829.328979 271.112339 C840.747559 273.301914 852.180725 271.508671 863.595032 271.908024 C875.408508 272.321354 887.247742 272.000004 899.075684 272.000004 C910.903625 272.000004 922.731628 272.001682 934.559570 271.999393 C941.429871 271.998050 947.161987 275.211307 951.192200 280.131351 C953.423096 282.854892 952.399414 288.042484 954.257629 291.316349 C957.862976 297.668430 955.369141 304.172031 955.892029 310.548923 C956.647400 319.762394 956.675964 329.035862 956.997437 338.284366 C957.342102 348.198398 957.820496 358.111118 957.950806 368.028202 C958.052917 375.794224 956.814453 383.478397 958.788513 391.326999 C960.120728 396.623752 957.091187 401.874302 955.811768 407.139530 C954.737854 411.558872 952.656250 414.488163 949.964600 417.640262 C947.434814 420.602787 944.133118 421.900516 940.654358 421.915073 C906.836975 422.056370 873.016663 422.182163 839.203125 421.793155 C834.422241 421.738163 829.960754 422.520817 826.337646 424.637058 C823.719299 426.166385 822.860840 430.559086 820.966248 433.513614 C818.327271 437.628727 820.121399 442.019047 820.111511 446.200565 C819.953491 513.336368 820.054810 580.472782 819.912781 647.608646 C819.898987 654.111637 819.389648 660.800724 817.758362 667.050541 C816.573242 671.590885 813.995667 676.509342 810.532715 679.535892 C805.614746 683.834049 799.701721 687.176212 792.853760 688.442142 C788.468994 689.252689 784.277954 691.111271 780.000000 692.750004 C778.500000 693.000004 777.000000 693.000004 775.250000 692.750004 C771.333313 692.666630 767.666687 692.833317 764.000000 693.000004 C762.166687 693.000004 760.333313 693.000004 758.250000 693.000004 z"/><path class="selected"  fill="#A41E1E" opacity="1.000000" stroke="none" 
 	d="
M1310.750000 0.000005 C1313.491089 0.342245 1315.975586 0.746231 1318.474854 1.012148 C1322.154907 1.403725 1325.843384 1.726398 1329.533203 2.015197 C1330.752808 2.110657 1332.001953 1.886116 1333.212769 2.024959 C1336.053711 2.350763 1338.875732 2.837033 1341.713379 3.197011 C1342.839966 3.339924 1343.991943 3.272492 1345.124146 3.383853 C1348.751465 3.740609 1352.501831 3.684434 1355.961182 4.655223 C1358.894653 5.478428 1362.108032 6.944432 1364.092407 9.129687 C1367.172241 12.521269 1371.035034 16.562525 1371.521484 20.687334 C1372.860229 32.039692 1372.923706 43.577949 1372.947998 55.043827 C1373.064087 109.863201 1373.064819 164.683094 1372.954224 219.502491 C1372.926636 233.194904 1372.266113 246.885166 1372.054810 260.578861 C1372.010864 263.434208 1373.134155 266.340305 1372.893921 269.152469 C1372.501343 273.750156 1371.693237 278.355716 1370.571167 282.835422 C1369.468140 287.239963 1368.103394 291.651249 1366.216553 295.767643 C1364.185059 300.199924 1361.614380 304.426151 1358.914307 308.500644 C1355.594360 313.510257 1352.070557 318.409733 1348.300903 323.087620 C1345.841675 326.139225 1342.491089 328.477665 1340.067871 331.551853 C1336.046997 336.653293 1330.731567 341.409885 1331.203857 348.594364 C1331.371460 351.142215 1333.817261 353.578190 1335.340820 355.990879 C1338.236328 360.576206 1341.169189 365.139744 1344.185791 369.645878 C1345.355591 371.393314 1346.694214 373.054416 1348.132690 374.589115 C1350.524292 377.140720 1353.585571 379.222599 1355.421509 382.103428 C1359.098755 387.873478 1362.249878 393.992313 1365.396729 400.081638 C1367.084473 403.347782 1368.823364 406.736576 1369.620117 410.276829 C1370.644409 414.827671 1370.641724 419.600651 1371.286133 424.249576 C1371.640259 426.804294 1372.932983 429.306156 1372.906494 431.822452 C1372.813599 440.684696 1371.909912 449.551914 1372.099731 458.400364 C1372.379883 471.462528 1373.346313 484.509556 1373.986450 497.564731 C1374.084229 499.559452 1374.000000 501.563053 1374.000000 503.562565 C1374.000000 529.889286 1374.129761 556.216923 1373.962036 582.542545 C1373.805908 607.066166 1373.239624 631.586918 1373.055298 656.110538 C1372.997803 663.771305 1371.874268 671.609379 1367.471313 677.367130 C1364.324585 681.482120 1360.054932 685.775211 1353.889526 687.539860 C1341.866699 690.981083 1329.978760 690.008365 1317.864258 689.154606 C1311.084717 688.676822 1304.198364 689.880253 1297.353027 690.088871 C1294.539062 690.174686 1291.690063 689.748356 1288.885986 689.350528 C1285.981323 688.938358 1282.701172 688.966434 1280.331787 687.551639 C1277.418823 685.812382 1275.093628 682.934879 1272.845459 680.270023 C1268.908813 675.603763 1264.983521 670.887211 1261.577271 665.838321 C1260.515869 664.264896 1261.314453 661.523258 1260.959473 659.366092 C1260.452026 656.283573 1259.218018 653.265262 1259.090942 650.186588 C1258.802368 643.200321 1259.122192 636.191227 1258.970947 629.196232 C1258.750366 619.001102 1258.033569 608.809147 1258.071289 598.617801 C1258.125488 583.925236 1258.541626 569.229862 1259.078613 554.545780 C1259.233643 550.304386 1260.577759 546.116642 1260.911377 541.867740 C1261.122192 539.182132 1260.267334 536.430729 1260.241211 533.705448 C1260.134521 522.590397 1260.162354 511.474064 1260.142212 500.358188 C1260.125366 491.103946 1260.112793 481.849705 1260.091431 472.595463 C1260.089966 471.942081 1259.967651 471.284672 1260.009644 470.636112 C1260.591309 461.660618 1261.463745 452.691837 1261.645264 443.708866 C1261.711426 440.431186 1259.657959 437.146274 1259.482178 433.816593 C1259.346191 431.243107 1258.985596 429.093479 1257.262939 427.236576 C1255.659790 425.508610 1254.271606 422.935001 1252.304565 422.343632 C1249.420532 421.476505 1246.104980 422.007633 1242.973389 422.005893 C1222.311890 421.994510 1201.647827 421.817905 1180.990356 422.104801 C1174.303223 422.197635 1169.680420 418.703892 1165.470703 414.630863 C1163.989746 413.197971 1164.098022 409.776401 1164.084717 407.259678 C1164.067993 404.067112 1164.949463 400.871891 1164.956299 397.676761 C1165.027344 364.518528 1165.020264 331.360080 1164.956909 298.201816 C1164.952393 295.839847 1164.136841 293.487095 1164.040161 291.116184 C1163.826172 285.865116 1166.287109 281.607548 1169.806519 278.035007 C1174.480469 273.290806 1180.438232 271.935550 1186.951782 271.965610 C1207.279663 272.059421 1227.608154 271.997104 1247.936401 272.002506 C1251.964722 272.003574 1256.318359 273.612827 1259.709106 270.209324 C1261.373047 268.538975 1263.307739 266.543339 1263.765503 264.404972 C1264.462036 261.152469 1264.145020 257.639438 1263.969727 254.252002 C1263.414673 243.524814 1265.319702 232.718784 1262.165771 222.038151 C1260.969360 217.986576 1261.879150 213.355457 1261.394287 209.037281 C1261.041138 205.892521 1259.971069 202.828815 1259.232056 199.726246 C1259.122314 199.265842 1259.011353 198.790577 1259.009888 198.321872 C1258.994019 193.266056 1258.871460 188.205921 1259.039307 183.155643 C1259.182617 178.840931 1259.281860 174.465427 1260.073364 170.242923 C1262.293457 158.398746 1260.750366 146.496525 1260.858643 134.636966 C1260.932129 126.588634 1259.352295 118.537769 1259.102905 110.469768 C1258.915405 104.401706 1259.848755 98.307873 1259.957397 92.219700 C1260.120972 83.058246 1260.000000 73.891720 1260.000000 64.727344 C1260.000000 56.005737 1259.262451 47.200573 1260.237915 38.589473 C1260.991943 31.933563 1263.180054 25.182033 1266.068115 19.109092 C1268.306885 14.401548 1271.939087 9.684355 1276.191650 6.798116 C1280.348389 3.976921 1285.107422 0.303805 1291.151123 1.918285 C1291.608398 2.040450 1292.376465 1.000022 1293.000000 0.250013 C1298.833374 0.000004 1304.666626 0.000004 1310.750000 0.000005 z"/><path class="selected"  fill="#A41E1E" opacity="1.000000" stroke="none" 
 	d="
M1988.000000 3.000004 C1995.666504 3.000004 2002.834351 2.923294 2009.998779 3.045918 C2012.198975 3.083578 2014.380371 3.786816 2016.588013 3.964898 C2018.631836 4.129752 2020.732178 3.765621 2022.750000 4.046958 C2027.492920 4.708185 2032.208984 5.574496 2036.920410 6.442140 C2039.118652 6.846965 2041.287842 7.910551 2043.458008 7.877277 C2051.827881 7.748942 2059.370361 10.782185 2067.015625 13.513930 C2072.706787 15.547495 2078.402588 17.569000 2084.096191 19.596336 C2091.026367 22.063984 2098.131592 24.137968 2104.835938 27.114540 C2111.111572 29.900814 2116.944824 33.675644 2123.005127 36.956062 C2128.275391 39.808796 2133.819824 42.226047 2138.820801 45.484199 C2143.828613 48.746971 2148.321777 52.801903 2153.024658 56.529884 C2159.552002 61.704189 2166.383789 66.553600 2172.467773 72.206775 C2176.361816 75.825062 2179.083252 80.688503 2182.438477 84.907947 C2185.581299 88.860203 2188.997803 92.599949 2192.039795 96.625202 C2193.907471 99.096355 2195.428955 101.859920 2196.864014 104.618084 C2198.274658 107.329342 2199.239990 110.272220 2200.651123 112.983043 C2202.785156 117.082752 2205.180176 121.046001 2207.380859 125.112217 C2208.963867 128.036823 2210.599365 130.956470 2211.875000 134.018436 C2213.741211 138.498157 2215.254150 143.123752 2217.017822 147.648197 C2218.245850 150.799289 2219.774170 153.836841 2220.928467 157.012363 C2222.333252 160.877552 2223.541992 164.817554 2224.731689 168.756489 C2225.767578 172.186802 2226.785156 175.632160 2227.575195 179.124195 C2228.204590 181.904361 2228.451416 184.769443 2228.917969 187.588550 C2229.376953 190.362125 2229.853516 193.134357 2230.407471 195.890095 C2230.848389 198.082859 2231.641113 200.226368 2231.873047 202.434208 C2232.181641 205.373691 2232.019043 208.359394 2232.208008 211.315708 C2232.350830 213.551182 2232.063721 216.196110 2233.153564 217.900776 C2234.843750 220.544498 2234.597168 222.788486 2234.406494 225.695850 C2234.131592 229.886814 2235.915039 234.177692 2235.922119 238.427494 C2236.034180 303.759281 2236.087402 369.091556 2235.910400 434.423038 C2235.882324 444.815067 2234.594482 455.200199 2234.062256 465.597416 C2233.959717 467.603641 2235.151611 469.712650 2234.904297 471.667759 C2234.286621 476.552219 2233.032715 481.353641 2232.335205 486.231479 C2231.925537 489.095524 2232.200928 492.050968 2231.960938 494.948154 C2231.803955 496.843662 2231.332031 498.721439 2230.902588 500.584415 C2229.627930 506.112888 2228.426758 511.662784 2226.966553 517.142887 C2225.450928 522.830875 2223.893555 528.527408 2221.933105 534.071293 C2220.137207 539.150821 2217.794922 544.038273 2215.665771 548.998600 C2212.046875 557.428959 2208.660400 565.972904 2204.666504 574.222416 C2202.713135 578.256901 2199.537354 581.686466 2197.052734 585.480045 C2194.156006 589.902530 2191.698242 594.643314 2188.507080 598.832462 C2185.936523 602.207279 2182.557617 604.966495 2179.538818 608.000309 C2174.025146 613.541691 2168.620361 619.197330 2162.960449 624.584781 C2159.442871 627.932865 2155.577637 630.922794 2151.797852 633.986210 C2148.366455 636.767154 2144.937012 639.568180 2141.330811 642.111454 C2136.477295 645.534549 2131.530762 648.840214 2126.488037 651.977176 C2119.014648 656.626102 2111.684326 661.625614 2103.794922 665.447086 C2097.614746 668.440616 2090.628906 669.733768 2084.098389 672.055973 C2080.553467 673.316471 2077.331787 675.548465 2073.749023 676.627506 C2068.540771 678.196171 2063.098877 678.973209 2057.832520 680.373234 C2054.748047 681.193302 2051.838623 682.650333 2048.797363 683.661381 C2046.977051 684.266544 2045.066284 684.865055 2043.175415 684.940250 C2038.568359 685.123478 2033.930908 684.749576 2029.340820 685.082462 C2025.920044 685.330509 2022.558472 686.882694 2019.162842 686.910465 C1997.664795 687.086735 1976.164429 686.992862 1954.664917 687.003605 C1946.109985 687.007877 1937.597046 688.140873 1929.129028 688.562870 C1921.063599 688.964786 1912.994507 690.195499 1904.894897 689.966678 C1899.194824 689.805668 1893.340698 688.311161 1887.838501 689.188480 C1870.134521 692.011539 1852.365845 691.028202 1834.639038 690.883060 C1810.911743 690.688785 1787.192261 689.159977 1763.467651 689.113285 C1723.274048 689.034244 1683.079468 689.754154 1642.884277 689.929142 C1634.450317 689.965885 1625.783447 689.603458 1619.026367 683.437382 C1613.903320 678.762516 1608.213745 674.272770 1604.567261 668.557926 C1601.812256 664.240177 1601.957153 658.099735 1600.677368 652.802860 C1599.919434 649.666324 1598.820679 646.612552 1598.043457 643.479862 C1597.770874 642.380924 1598.000000 641.157352 1598.000000 639.990726 C1598.000000 631.767032 1597.798218 623.536686 1598.070679 615.322025 C1598.253174 609.815555 1599.128662 604.333194 1599.636963 598.834842 C1599.698730 598.165531 1599.403320 597.463810 1599.276978 596.776554 C1598.850464 594.453068 1598.053711 592.129337 1598.052979 589.805546 C1597.995117 410.809238 1597.964233 231.812900 1598.171997 52.816845 C1598.178223 47.447494 1598.885742 41.825729 1601.660767 36.555137 C1604.252563 31.632713 1604.713257 25.600630 1607.228882 20.621307 C1608.723145 17.663917 1612.901367 16.174022 1614.930054 13.347592 C1617.624268 9.593611 1621.597046 8.630248 1625.345337 7.279422 C1630.452026 5.438959 1635.312134 3.619125 1641.392944 4.658327 C1648.166626 5.815909 1655.394409 4.383635 1662.417969 3.966441 C1664.293091 3.855058 1666.143555 3.042438 1668.005615 3.041621 C1774.503784 2.994918 1881.001831 3.000004 1988.000000 3.000004 M1654.000000 599.500004 C1654.482544 606.399845 1653.356812 613.282352 1655.646851 620.261905 C1656.620483 623.229374 1656.387085 626.499882 1658.680176 629.322269 C1661.665771 632.996952 1665.396484 633.134159 1669.550415 633.045719 C1677.102905 632.884830 1684.663696 633.112369 1692.216309 632.955753 C1696.416016 632.868717 1700.602173 632.190983 1704.802979 632.065494 C1706.652954 632.010074 1708.560913 633.080875 1710.378784 632.920292 C1715.289185 632.486759 1720.148926 631.421085 1725.061279 631.094547 C1727.888184 630.906559 1730.958252 632.462955 1733.608398 631.862858 C1745.355591 629.202640 1757.078491 629.519779 1768.897339 630.948856 C1771.745605 631.293278 1774.671143 631.000004 1777.561157 631.000004 C1780.394043 631.000004 1783.270386 630.684330 1786.050903 631.066227 C1791.723145 631.845279 1797.309937 633.466495 1802.994507 633.880497 C1809.904419 634.383732 1816.878906 634.000004 1823.825439 634.000004 C1824.658691 634.000004 1825.526611 633.845463 1826.319580 634.024112 C1833.558716 635.655887 1846.569336 634.945072 1853.780273 633.122013 C1856.706909 632.382145 1859.982544 632.882267 1863.089600 633.026737 C1868.122070 633.260624 1873.240967 634.408878 1878.146606 633.783817 C1882.724243 633.200565 1886.892212 632.781254 1891.265869 634.602360 C1892.644653 635.176456 1894.600830 634.453007 1896.275513 634.206424 C1898.615601 633.861759 1900.938599 633.059269 1903.270508 633.052921 C1932.765625 632.972538 1962.261108 632.978763 1991.756348 633.043094 C1993.952026 633.047916 1996.202393 634.154239 1998.330688 633.909000 C2004.834839 633.159611 2011.282837 631.937748 2017.770386 631.025577 C2021.168579 630.547794 2024.598633 630.257389 2028.023926 630.023258 C2030.927856 629.824650 2033.929443 630.231815 2036.737793 629.648563 C2041.018433 628.759586 2045.143555 627.148868 2049.382812 626.026127 C2054.233398 624.741642 2059.178467 623.803348 2064.001465 622.429874 C2067.077148 621.553959 2070.013916 620.180790 2072.999023 618.995670 C2078.338135 616.876163 2083.875488 615.130375 2088.944092 612.488285 C2094.545898 609.568363 2099.851074 606.012638 2105.037598 602.379886 C2111.735596 597.688236 2118.458008 592.959659 2124.644775 587.636600 C2128.375488 584.426883 2131.027344 579.986576 2134.312256 576.229007 C2137.888184 572.138187 2141.665039 568.223392 2145.293213 564.177189 C2146.588867 562.732425 2147.903320 561.241703 2148.865234 559.573368 C2151.340332 555.280399 2153.580322 550.852482 2155.994629 546.523258 C2158.616455 541.822147 2161.394531 537.207584 2163.981201 532.487797 C2166.235840 528.373966 2168.679932 524.307743 2170.382080 519.962528 C2172.304688 515.054874 2174.079834 509.944919 2174.834717 504.764866 C2175.588135 499.594547 2174.822266 494.219852 2175.083740 488.952732 C2175.194336 486.725895 2176.585693 484.573704 2176.765625 482.336857 C2177.092529 478.280796 2176.959473 474.186863 2176.995850 470.108555 C2177.018555 467.552006 2176.940186 464.993442 2177.010986 462.438663 C2177.229980 454.542331 2177.415527 446.643650 2177.774170 438.753147 C2178.061523 432.421116 2178.955078 426.097721 2178.921387 419.773990 C2178.854980 407.245945 2177.135498 394.590549 2178.473389 382.244999 C2179.211914 375.428989 2177.481934 369.846653 2176.306641 363.727207 C2175.541260 359.742832 2175.145752 355.640323 2175.081055 351.582828 C2175.024902 348.061008 2176.311035 344.434849 2175.817871 341.026401 C2175.330078 337.655094 2174.184326 334.856937 2176.649414 331.540714 C2177.945801 329.796970 2177.448486 326.694034 2177.687012 324.197819 C2177.906006 321.907078 2177.510498 319.408970 2178.300293 317.353489 C2179.774414 313.516422 2179.316162 309.790378 2178.511719 306.082279 C2177.570068 301.741184 2175.206543 297.506046 2175.159424 293.206241 C2174.850098 265.047367 2174.984131 236.883411 2175.032227 208.721226 C2175.036133 206.561390 2175.926514 204.346836 2175.656982 202.254001 C2175.007324 197.209003 2172.876953 192.136799 2173.275391 187.232578 C2173.724121 181.712681 2171.825195 176.762989 2170.239746 172.232761 C2167.613281 164.727695 2162.782227 157.965717 2158.659180 151.021793 C2155.272461 145.317798 2151.701660 139.711200 2147.965088 134.230152 C2143.365723 127.483555 2139.007324 120.470676 2133.618652 114.394268 C2128.670898 108.815059 2122.563477 104.243625 2116.833984 99.385166 C2112.668213 95.852970 2108.381592 92.445751 2103.971191 89.226009 C2100.148193 86.435337 2096.281250 83.574550 2092.070312 81.473034 C2083.510010 77.200908 2074.605469 73.620601 2066.032471 69.372097 C2059.565430 66.167263 2053.188965 63.675403 2045.702148 63.883304 C2034.685791 64.189197 2023.729980 64.432560 2012.835938 60.860615 C2007.189209 59.009117 2000.549316 60.065597 1994.356445 60.019581 C1944.778687 59.651207 1895.200317 59.370170 1845.622925 58.962398 C1837.702759 58.897255 1829.698242 58.964966 1821.887817 57.867180 C1806.124512 55.651607 1790.361572 57.731529 1774.618286 57.023472 C1771.068848 56.863834 1767.501099 56.879219 1763.950806 57.028225 C1758.585205 57.253410 1753.230835 57.783249 1747.864624 57.942932 C1745.701294 58.007301 1743.492188 57.069179 1741.350830 57.226375 C1735.924072 57.624756 1730.532959 58.499595 1725.107910 58.938991 C1723.156494 59.097057 1721.120728 58.234710 1719.172241 58.403187 C1715.548706 58.716488 1711.974609 59.777675 1708.355225 59.926582 C1701.976562 60.189003 1695.448608 60.783321 1689.232300 59.745704 C1684.480957 58.952629 1679.635986 60.197593 1674.702148 57.879001 C1672.328735 56.763515 1666.411255 54.738968 1663.528198 59.928184 C1662.750854 61.327301 1661.798584 62.715534 1660.638428 63.800678 C1655.951660 68.184299 1654.963135 74.112674 1654.130981 79.928264 C1653.713013 82.848865 1654.982178 85.971004 1654.931519 88.992687 C1654.838989 94.524425 1654.043823 100.049160 1654.042114 105.576977 C1653.990234 269.884647 1654.000000 434.192325 1654.000000 599.500004 z"/><path class="selected"  fill="#A41E1E" opacity="1.000000" stroke="none" 
 	d="
M1501.000000 18.000002 C1502.287842 21.121116 1503.162231 24.223558 1503.840820 27.368225 C1504.648315 31.109588 1505.909058 34.886917 1505.910889 38.649177 C1506.011230 245.469898 1506.009033 452.290684 1505.955811 659.111454 C1505.954224 665.161747 1504.483887 671.157047 1500.706909 675.906070 C1497.326782 680.155948 1493.066650 683.752750 1488.911865 687.307132 C1487.876709 688.192814 1485.738892 688.034855 1484.128296 687.953007 C1480.535034 687.770389 1476.890991 687.641544 1473.386230 686.917484 C1469.516235 686.117985 1465.774048 684.692875 1461.985718 683.509891 C1460.123657 682.928470 1454.984375 675.877628 1454.453979 674.012394 C1449.326416 655.979313 1452.184204 637.560367 1452.160400 619.365909 C1451.903198 423.378116 1451.999146 227.389896 1452.004150 31.401798 C1452.004395 24.825598 1453.527710 18.309341 1456.904541 12.970247 C1460.221069 7.726351 1466.723145 5.791522 1472.556885 4.142394 C1480.054932 2.022831 1486.621582 4.609877 1492.343750 9.773708 C1494.956421 12.131466 1497.950928 14.063298 1500.692261 16.286802 C1500.932983 16.482013 1500.578247 17.411533 1501.000000 18.000002 z"/><path class="selected"  fill="#888888" opacity="1.000000" stroke="none" 
 	d="
M1148.750000 467.250004 C1146.000000 466.651096 1143.370117 466.676273 1141.030762 465.864475 C1137.621582 464.681431 1134.408203 462.924106 1131.137817 461.356052 C1129.496704 460.569156 1127.442627 460.043094 1126.384155 458.741337 C1120.714478 451.768497 1112.688477 446.897098 1108.683716 438.378971 C1107.550171 435.967716 1104.813965 434.308414 1102.807861 432.309177 C1099.540649 429.053257 1096.704834 425.098026 1092.884644 422.734195 C1088.566162 420.061893 1083.406250 418.693668 1078.527710 417.002140 C1075.414429 415.922672 1072.148071 415.284366 1068.949707 414.451023 C1068.347290 414.294071 1067.571655 413.830539 1067.162476 414.047855 C1060.902222 417.372074 1055.654175 413.212711 1050.247192 411.462497 C1048.415161 410.869449 1046.493164 407.915867 1046.164185 405.799625 C1045.064209 398.726719 1044.159302 391.549351 1044.091675 384.403385 C1043.854980 359.413761 1043.646851 334.412723 1044.201416 309.433170 C1044.383057 301.251590 1045.699219 292.599643 1052.238525 286.371341 C1055.556030 283.211673 1059.868408 282.007389 1064.300415 280.533512 C1069.632080 278.760410 1074.991211 278.822971 1080.157104 277.510502 C1085.080933 276.259495 1089.715454 273.608738 1094.242676 271.142765 C1097.704102 269.257328 1101.297852 267.169315 1103.956177 264.346073 C1109.820679 258.117740 1114.947998 251.198124 1120.765747 244.921772 C1122.870483 242.651310 1126.169556 241.527485 1128.777222 239.674381 C1132.259521 237.199589 1135.655884 234.594455 1138.983032 231.913608 C1141.931885 229.537739 1149.292114 228.313572 1153.482910 228.833851 C1156.420532 229.198566 1159.696655 228.860721 1162.501221 227.900547 C1171.482422 224.825794 1180.162354 228.157581 1188.721436 229.420795 C1192.973022 230.048267 1198.418823 231.851413 1201.399170 236.742923 C1203.454956 240.117115 1206.575195 242.823780 1208.939087 246.035328 C1210.788330 248.547596 1208.922729 253.842182 1205.997314 254.987522 C1202.457642 256.373447 1198.972290 258.106815 1195.293457 258.865757 C1192.147583 259.514713 1188.706421 258.623874 1185.495728 259.094944 C1181.457642 259.687412 1177.560669 261.207432 1173.528687 261.888767 C1169.998413 262.485355 1166.252686 261.160312 1162.794556 262.982181 C1161.527222 263.649875 1159.793213 263.778538 1158.897095 264.737278 C1156.493530 267.308811 1152.863525 268.947605 1152.271484 272.998539 C1151.861450 275.804355 1151.088989 278.583805 1150.956909 281.397495 C1150.754639 285.703708 1151.071899 290.031589 1150.979980 294.346226 C1150.702271 307.371708 1150.069824 320.395298 1150.073120 333.419498 C1150.076416 346.777103 1150.925171 360.134556 1150.926880 373.492100 C1150.928467 386.682987 1150.004517 399.877903 1150.163208 413.062900 C1150.225952 418.277561 1151.839478 423.548008 1153.275269 428.644169 C1154.151489 431.754093 1161.985718 434.216404 1165.978394 434.096531 C1175.799561 433.801639 1185.648315 433.710880 1195.459717 434.138859 C1199.522095 434.316044 1203.644165 435.691623 1207.504028 437.146152 C1210.782104 438.381473 1211.597290 446.416019 1209.373047 450.017612 C1206.924683 453.982273 1205.441406 458.914890 1202.142456 461.866398 C1199.433838 464.289585 1196.146729 466.750980 1191.507202 467.307255 C1184.639648 468.130710 1177.849487 467.498478 1171.046997 467.975162 C1164.638184 468.424228 1158.216919 468.731632 1151.795898 468.926914 C1150.879150 468.954807 1149.932739 468.000004 1148.750000 467.250004 M1078.000000 351.500004 C1078.061646 358.586277 1076.011108 365.737858 1078.924561 372.751743 C1079.534058 374.219242 1078.589844 376.484134 1079.397461 377.684604 C1080.915527 379.940861 1082.871582 382.384311 1085.233154 383.462375 C1087.855225 384.659244 1090.921265 387.559513 1094.092041 384.588627 C1095.630371 383.147312 1097.171875 381.279606 1097.742432 379.322361 C1099.020020 374.939518 1099.997925 370.414737 1100.514404 365.881290 C1100.957031 361.995029 1100.918579 357.979954 1100.489380 354.088413 C1100.022339 349.851902 1098.741699 345.710911 1098.066406 341.488224 C1097.842163 340.086216 1098.586060 338.555790 1098.553223 337.091587 C1098.467651 333.286960 1097.445801 329.326023 1098.214111 325.730106 C1098.962280 322.227817 1099.065430 319.432224 1097.167480 316.358951 C1095.982910 314.440677 1096.285278 314.253940 1090.491455 311.991489 C1086.288208 310.350132 1083.881592 311.789249 1080.871216 314.309543 C1076.171509 318.244236 1077.369995 323.366855 1077.175537 327.959354 C1076.858398 335.447819 1077.666626 342.983982 1078.000000 351.500004 z"/><path class="selected"  fill="#888888" opacity="1.000000" stroke="none" 
 	d="
M986.250000 233.750004 C991.859863 236.127567 997.310974 237.951725 1001.682495 242.088367 C1006.268188 246.427631 1011.711609 249.946689 1015.854248 254.641346 C1019.330688 258.580997 1021.508728 263.676487 1024.195557 268.298618 C1025.607544 270.727451 1027.249023 273.114048 1028.130737 275.739994 C1029.685303 280.369724 1031.785278 285.157902 1031.831421 289.897587 C1032.151245 322.718479 1032.027100 355.543949 1031.974121 388.367893 C1031.965088 393.975406 1032.935059 399.417881 1033.625366 404.924198 C1034.086426 408.602146 1034.797607 413.066105 1031.667358 417.242496 C1028.290771 421.747410 1027.371216 428.041111 1024.220093 432.784000 C1021.549377 436.803898 1017.387817 439.921299 1013.584595 443.074650 C1010.182739 445.895298 1006.475342 448.390842 1002.711365 450.720646 C997.632446 453.864353 992.573547 457.179966 987.125916 459.546909 C982.283447 461.650852 977.000000 463.269962 971.773499 463.839420 C963.255066 464.767582 954.620239 464.972568 946.043457 464.850956 C942.564453 464.801639 939.149292 462.881016 935.628601 462.217899 C933.275940 461.774753 930.757568 461.777805 928.367188 462.051517 C921.691772 462.815891 916.216797 458.538242 914.907043 451.543796 C914.562134 449.701572 913.531677 447.972019 912.713745 446.238987 C912.037292 444.805851 910.238770 442.725681 910.636108 442.188328 C911.724121 440.717045 913.803833 440.028415 915.321472 438.817508 C924.574402 431.434421 935.080261 434.075199 945.406799 434.827854 C947.763794 434.999637 950.240051 434.452274 952.568787 433.867130 C955.607849 433.103519 958.597839 432.086094 961.530396 430.971195 C965.155945 429.592838 966.925781 427.166782 965.628723 423.069614 C965.154846 421.572422 964.675720 419.760471 965.088623 418.353061 C967.013489 411.791599 966.011841 405.406101 965.169128 398.797031 C964.128662 390.637211 963.833557 382.296268 964.201294 374.077640 C964.398499 369.670749 966.650513 365.352970 968.014587 361.007297 C968.105469 360.717716 968.760681 360.537449 968.765442 360.298649 C968.876099 354.716251 969.091492 349.129062 968.957825 343.550602 C968.809265 337.352726 968.088623 331.163273 968.072998 324.969028 C968.059021 319.442936 968.861633 313.917606 968.929504 308.387394 C968.972839 304.864444 967.733643 301.264103 968.130127 297.820591 C968.860168 291.480350 970.218750 285.195652 971.621094 278.956577 C972.342285 275.747898 969.012329 269.406589 965.635925 267.831302 C963.364746 266.771671 960.444458 265.587650 959.469788 263.633640 C958.135010 260.957828 956.925110 263.144932 955.967041 263.122410 C947.141113 262.914768 938.264160 263.530185 929.493896 262.801334 C924.225769 262.363529 918.603760 260.813022 914.147217 258.105808 C911.690430 256.613376 910.540283 251.743305 910.328796 248.302112 C910.224243 246.599766 913.494995 244.593387 915.386658 242.888904 C917.895874 240.627994 920.339844 238.183094 923.193665 236.443760 C926.947205 234.156040 930.901184 231.857502 935.083496 230.704914 C939.623962 229.453617 944.515808 229.314548 949.273560 229.080662 C951.778931 228.957523 954.317261 229.769260 956.855591 229.967640 C958.899658 230.127414 960.990784 229.795719 963.017883 230.039798 C968.276306 230.672977 973.514099 231.482883 978.753845 232.264301 C981.176758 232.625644 983.585083 233.085056 986.250000 233.750004 z"/></svg>